# xmcd CD database file
#
# Track frame offsets:
#	150
#	14570
#	30912
#	50026
#	69021
#	81835
#	97049
#	116385
#	134412
#	150484
#	171608
#	189762
#
# Disc length: 2768 seconds
#
# Revision: 0
# Processed by: cddbd v1.5.2PL0 Copyright (c) Steve Scherf et al.
# Submitted via: CDex 1.70beta2
#
DISCID=940ace0c
DTITLE=Jared Blake - Commercially Unaccepted
DYEAR=2009
DGENRE=Blues
TTITLE0=Easy Lovin You
TTITLE1=Ain't My Kinda Town
TTITLE2=Seventeen
TTITLE3=Truly
TTITLE4=Can I Get Your Name
TTITLE5=Walk Off
TTITLE6=Half Of Me
TTITLE7=Better Man
TTITLE8=You Think You Know Me
TTITLE9=Your Best Wine
TTITLE10=Drink Too Much
TTITLE11=Change
EXTD=YEAR: 2009
EXTT0=
EXTT1=
EXTT2=
EXTT3=
EXTT4=
EXTT5=
EXTT6=
EXTT7=
EXTT8=
EXTT9=
EXTT10=
EXTT11=
PLAYORDER=
